<svg width="32" height="32" viewBox="0 0 32 32" xmlns="http://www.w3.org/2000/svg">
  <defs>
    <linearGradient id="faviconGradient" x1="0%" y1="0%" x2="100%" y2="100%">
      <stop offset="0%" style="stop-color:#4F46E5;stop-opacity:1" />
      <stop offset="50%" style="stop-color:#7C3AED;stop-opacity:1" />
      <stop offset="100%" style="stop-color:#EC4899;stop-opacity:1" />
    </linearGradient>
    <linearGradient id="calendarGradient" x1="0%" y1="0%" x2="100%" y2="100%">
      <stop offset="0%" style="stop-color:#3B82F6;stop-opacity:1" />
      <stop offset="100%" style="stop-color:#1D4ED8;stop-opacity:1" />
    </linearGradient>
  </defs>
  
  <!-- Background circle -->
  <circle cx="16" cy="16" r="15" fill="url(#faviconGradient)"/>
  
  <!-- Calendar Icon -->
  <g transform="translate(4, 6)">
    <!-- Calendar base -->
    <rect x="0" y="2" width="24" height="18" rx="2" fill="white" opacity="0.9"/>
    
    <!-- Calendar header -->
    <rect x="0" y="2" width="24" height="6" rx="2" fill="#1E40AF"/>
    
    <!-- Calendar rings -->
    <circle cx="4" cy="5" r="0.8" fill="white"/>
    <circle cx="8" cy="5" r="0.8" fill="white"/>
    <circle cx="12" cy="5" r="0.8" fill="white"/>
    <circle cx="16" cy="5" r="0.8" fill="white"/>
    <circle cx="20" cy="5" r="0.8" fill="white"/>
    
    <!-- Calendar days -->
    <circle cx="4" cy="10" r="1" fill="#4F46E5" opacity="0.8"/>
    <circle cx="8" cy="10" r="1" fill="#4F46E5" opacity="0.6"/>
    <circle cx="12" cy="10" r="1" fill="#4F46E5" opacity="0.8"/>
    <circle cx="16" cy="10" r="1" fill="#4F46E5" opacity="0.4"/>
    <circle cx="20" cy="10" r="1" fill="#4F46E5" opacity="0.7"/>
    
    <circle cx="4" cy="14" r="1" fill="#4F46E5" opacity="0.6"/>
    <circle cx="8" cy="14" r="1" fill="#4F46E5" opacity="0.8"/>
    <circle cx="12" cy="14" r="1" fill="#4F46E5" opacity="0.4"/>
    <circle cx="16" cy="14" r="1" fill="#4F46E5" opacity="0.7"/>
    <circle cx="20" cy="14" r="1" fill="#4F46E5" opacity="0.5"/>
    
    <!-- Highlight circle -->
    <circle cx="8" cy="14" r="1.5" fill="none" stroke="#FCD34D" stroke-width="0.8" opacity="0.9"/>
  </g>
</svg> 